Dinish-ExpandedRegular.ufo
<glyph name="dollar" format="2">
  <advance width="531"/>
  <unicode hex="0024"/>
  <outline>
    <contour>
      <point x="226" y="-60" type="line"/>
      <point x="295" y="-60" type="line"/>
      <point x="295" y="30" type="line"/>
      <point x="419.038" y="40.7859"/>
      <point x="489" y="107.863"/>
      <point x="489" y="216" type="curve" smooth="yes"/>
      <point x="489" y="315.428"/>
      <point x="433.466" y="372.922"/>
      <point x="319" y="392" type="curve" smooth="yes"/>
      <point x="261.707" y="401.549" type="line" smooth="yes"/>
      <point x="168.747" y="417.042"/>
      <point x="133" y="445.219"/>
      <point x="133" y="503" type="curve" smooth="yes"/>
      <point x="133" y="567.369"/>
      <point x="177.492" y="601.822"/>
      <point x="260.613" y="601.822" type="curve" smooth="yes"/>
      <point x="343.869" y="601.822"/>
      <point x="386.844" y="567.795"/>
      <point x="393" y="497" type="curve"/>
      <point x="478" y="497" type="line"/>
      <point x="471.439" y="604.601"/>
      <point x="407.477" y="667.514"/>
      <point x="295" y="677" type="curve"/>
      <point x="295" y="759" type="line"/>
      <point x="226" y="759" type="line"/>
      <point x="226" y="676" type="line"/>
      <point x="111.721" y="665.369"/>
      <point x="45" y="599.017"/>
      <point x="45" y="496" type="curve" smooth="yes"/>
      <point x="45" y="401.216"/>
      <point x="98.1497" y="348.377"/>
      <point x="216" y="326" type="curve" smooth="yes"/>
      <point x="295" y="311" type="line" smooth="yes"/>
      <point x="372.346" y="296.314"/>
      <point x="401" y="269.012"/>
      <point x="401" y="210" type="curve" smooth="yes"/>
      <point x="401" y="141.284"/>
      <point x="354.436" y="104.377"/>
      <point x="267.736" y="104.377" type="curve" smooth="yes"/>
      <point x="172.34" y="104.377"/>
      <point x="124.685" y="140.616"/>
      <point x="117" y="219" type="curve"/>
      <point x="32" y="219" type="line"/>
      <point x="38.6675" y="102.985"/>
      <point x="104.682" y="38.3322"/>
      <point x="226" y="29" type="curve"/>
    </contour>
  </outline>
</glyph>
<glyph name="plus" format="2">
  <advance width="521"/>
  <unicode hex="002B"/>
  <outline>
    <contour>
      <point x="54" y="242" type="line"/>
      <point x="219" y="242" type="line"/>
      <point x="219" y="76" type="line"/>
      <point x="302" y="76" type="line"/>
      <point x="302" y="242" type="line"/>
      <point x="467" y="242" type="line"/>
      <point x="467" y="324" type="line"/>
      <point x="302" y="324" type="line"/>
      <point x="302" y="489" type="line"/>
      <point x="219" y="489" type="line"/>
      <point x="219" y="324" type="line"/>
      <point x="54" y="324" type="line"/>
    </contour>
  </outline>
</glyph>
<glyph name="less" format="2">
  <advance width="521"/>
  <unicode hex="003C"/>
  <outline>
    <contour>
      <point x="54" y="246" type="line"/>
      <point x="466" y="79" type="line"/>
      <point x="466" y="165" type="line"/>
      <point x="167" y="283" type="line"/>
      <point x="466" y="399" type="line"/>
      <point x="466" y="485" type="line"/>
      <point x="54" y="319" type="line"/>
    </contour>
  </outline>
</glyph>
<glyph name="N" format="2">
  <advance width="739"/>
  <unicode hex="004E"/>
  <anchor x="362" y="760" name="top"/>
  <anchor x="362" y="-86" name="bottom"/>
  <outline>
    <contour>
      <point x="74" y="0" type="line"/>
      <point x="167" y="0" type="line"/>
      <point x="167" y="547" type="line"/>
      <point x="571" y="0" type="line"/>
      <point x="665" y="0" type="line"/>
      <point x="665" y="707" type="line"/>
      <point x="571" y="707" type="line"/>
      <point x="571" y="159" type="line"/>
      <point x="167" y="707" type="line"/>
      <point x="74" y="707" type="line"/>
    </contour>
  </outline>
  <guideline angle="90" name="h1" x="362" y="0"/>
</glyph>
<glyph name="O" format="2">
  <advance width="711"/>
  <unicode hex="004F"/>
  <anchor x="355" y="760" name="top"/>
  <anchor x="355" y="-86" name="bottom"/>
  <anchor x="267" y="0" name="b.cedilla"/>
  <outline>
    <contour>
      <point x="355" y="-9" type="curve" smooth="yes"/>
      <point x="548.016" y="-9"/>
      <point x="651" y="99.2027"/>
      <point x="651" y="302" type="curve" smooth="yes"/>
      <point x="651" y="406" type="line" smooth="yes"/>
      <point x="651" y="607.734"/>
      <point x="548.058" y="717"/>
      <point x="358" y="717" type="curve" smooth="yes"/>
      <point x="165.651" y="717"/>
      <point x="62" y="608.097"/>
      <point x="62" y="406" type="curve" smooth="yes"/>
      <point x="62" y="302" type="line" smooth="yes"/>
      <point x="62" y="99.9964"/>
      <point x="164.688" y="-9"/>
    </contour>
    <contour>
      <point x="357" y="75" type="curve" smooth="yes"/>
      <point x="220.221" y="75"/>
      <point x="156" y="147.209"/>
      <point x="156" y="301" type="curve" smooth="yes"/>
      <point x="156" y="400" type="line" smooth="yes"/>
      <point x="156" y="558.826"/>
      <point x="219.987" y="633"/>
      <point x="357" y="633" type="curve" smooth="yes"/>
      <point x="494.356" y="633"/>
      <point x="559" y="558.436"/>
      <point x="559" y="400" type="curve" smooth="yes"/>
      <point x="559" y="301" type="line" smooth="yes"/>
      <point x="559" y="148.056"/>
      <point x="493.702" y="75"/>
    </contour>
  </outline>
  <guideline angle="90" name="h1" x="355" y="0"/>
</glyph>
<glyph name="Q" format="2">
  <advance width="711"/>
  <unicode hex="0051"/>
  <anchor x="355" y="760" name="top"/>
  <anchor x="236" y="-86" name="bottom"/>
  <outline>
    <contour>
      <point x="355" y="-9" type="curve" smooth="yes"/>
      <point x="546.983" y="-9"/>
      <point x="651.024" y="99.1835"/>
      <point x="651.009" y="298.795" type="curve" smooth="yes"/>
      <point x="651" y="406" type="line" smooth="yes"/>
      <point x="650.984" y="607.742"/>
      <point x="548.05" y="717"/>
      <point x="358" y="717" type="curve" smooth="yes"/>
      <point x="165.651" y="717"/>
      <point x="62" y="608.097"/>
      <point x="62" y="406" type="curve" smooth="yes"/>
      <point x="62" y="302" type="line" smooth="yes"/>
      <point x="62" y="99.5995"/>
      <point x="164.314" y="-9"/>
    </contour>
    <contour>
      <point x="357" y="75" type="curve" smooth="yes"/>
      <point x="220.221" y="75"/>
      <point x="156" y="147.209"/>
      <point x="156" y="301" type="curve" smooth="yes"/>
      <point x="156" y="400" type="line" smooth="yes"/>
      <point x="156" y="558.826"/>
      <point x="219.987" y="633"/>
      <point x="357" y="633" type="curve" smooth="yes"/>
      <point x="494.356" y="633"/>
      <point x="559" y="558.436"/>
      <point x="559" y="400" type="curve" smooth="yes"/>
      <point x="559" y="301" type="line" smooth="yes"/>
      <point x="559" y="148.333"/>
      <point x="493.454" y="75"/>
    </contour>
    <contour>
      <point x="545" y="-155" type="line"/>
      <point x="617" y="-116" type="line"/>
      <point x="528.85" y="51.5943" type="line"/>
      <point x="452.758" y="17.5459" type="line"/>
    </contour>
  </outline>
  <guideline angle="90" name="h1" x="355" y="0"/>
</glyph>
<glyph name="S" format="2">
  <advance width="625"/>
  <unicode hex="0053"/>
  <anchor x="305" y="760" name="top"/>
  <anchor x="273" y="0" name="b.cedilla"/>
  <anchor x="305" y="-86" name="bottom"/>
  <outline>
    <contour>
      <point x="32" y="204" type="line"/>
      <point x="41.2897" y="65.9823"/>
      <point x="134.867" y="-6"/>
      <point x="305" y="-6" type="curve" smooth="yes"/>
      <point x="480.862" y="-6"/>
      <point x="584" y="70.8913"/>
      <point x="584" y="202" type="curve" smooth="yes"/>
      <point x="584" y="312.667"/>
      <point x="514.333" y="377.333"/>
      <point x="375" y="396" type="curve" smooth="yes"/>
      <point x="275" y="408" type="line" smooth="yes"/>
      <point x="181.935" y="419.168"/>
      <point x="138" y="455.406"/>
      <point x="138" y="521" type="curve" smooth="yes"/>
      <point x="138" y="597.212"/>
      <point x="196.31" y="637"/>
      <point x="308" y="637" type="curve" smooth="yes"/>
      <point x="417.333" y="637"/>
      <point x="473.251" y="597.337"/>
      <point x="480" y="515" type="curve"/>
      <point x="570" y="515" type="line"/>
      <point x="556.725" y="646.421"/>
      <point x="466.03" y="716"/>
      <point x="308" y="716" type="curve" smooth="yes"/>
      <point x="145.41" y="716"/>
      <point x="48" y="640.695"/>
      <point x="48" y="515" type="curve" smooth="yes"/>
      <point x="48" y="406.341"/>
      <point x="116.659" y="343.348"/>
      <point x="254" y="326" type="curve" smooth="yes"/>
      <point x="349" y="314" type="line" smooth="yes"/>
      <point x="447.043" y="303.256"/>
      <point x="492" y="266.159"/>
      <point x="492" y="196" type="curve" smooth="yes"/>
      <point x="491.333" y="114.667"/>
      <point x="430.333" y="74"/>
      <point x="309" y="74" type="curve" smooth="yes"/>
      <point x="188.164" y="74"/>
      <point x="129.775" y="114.592"/>
      <point x="122" y="204" type="curve"/>
    </contour>
  </outline>
  <guideline angle="90" name="h1" x="305" y="0"/>
</glyph>
<glyph name="underscore" format="2">
  <advance width="549"/>
  <unicode hex="005F"/>
  <outline>
    <contour>
      <point x="0" y="-112" type="line"/>
      <point x="550" y="-112" type="line"/>
      <point x="550" y="-51" type="line"/>
      <point x="0" y="-51" type="line"/>
    </contour>
  </outline>
</glyph>
<glyph name="b" format="2">
  <advance width="593"/>
  <unicode hex="0062"/>
  <anchor x="322" y="590" name="top"/>
  <anchor x="322" y="-86" name="bottom"/>
  <outline>
    <contour>
      <point x="69" y="0" type="line"/>
      <point x="155" y="0" type="line"/>
      <point x="155" y="68" type="line"/>
      <point x="189.846" y="17.0709"/>
      <point x="246.39" y="-9"/>
      <point x="322" y="-9" type="curve" smooth="yes"/>
      <point x="458.373" y="-9"/>
      <point x="541" y="83.4367"/>
      <point x="541" y="236" type="curve" smooth="yes"/>
      <point x="541" y="291" type="line" smooth="yes"/>
      <point x="541" y="442.693"/>
      <point x="458.151" y="535"/>
      <point x="322" y="535" type="curve" smooth="yes"/>
      <point x="250.749" y="535"/>
      <point x="191.71" y="506.192"/>
      <point x="156" y="454" type="curve"/>
      <point x="156" y="707" type="line"/>
      <point x="69" y="707" type="line"/>
    </contour>
    <contour>
      <point x="309" y="68" type="curve" smooth="yes"/>
      <point x="214.836" y="68"/>
      <point x="156" y="129.144"/>
      <point x="156" y="227" type="curve" smooth="yes"/>
      <point x="156" y="296" type="line" smooth="yes"/>
      <point x="156" y="395.801"/>
      <point x="213.398" y="457"/>
      <point x="307" y="457" type="curve" smooth="yes"/>
      <point x="403.91" y="457"/>
      <point x="454" y="399.073"/>
      <point x="454" y="287" type="curve" smooth="yes"/>
      <point x="454" y="240" type="line" smooth="yes"/>
      <point x="454" y="128.101"/>
      <point x="403.333" y="68"/>
    </contour>
  </outline>
  <guideline angle="90" name="vertical" x="322" y="0"/>
  <guideline angle="0" name="horizontal" x="0" y="590"/>
</glyph>
<glyph name="i" format="2">
  <advance width="239"/>
  <unicode hex="0069"/>
  <anchor x="163" y="0" name="b.cedilla"/>
  <anchor x="119" y="-86" name="bottom"/>
  <outline>
    <contour>
      <point x="76" y="0" type="line"/>
      <point x="163" y="0" type="line"/>
      <point x="163" y="524" type="line"/>
      <point x="76" y="524" type="line"/>
    </contour>
    <contour>
      <point x="76" y="611" type="line"/>
      <point x="163" y="611" type="line"/>
      <point x="163" y="706" type="line"/>
      <point x="76" y="706" type="line"/>
    </contour>
  </outline>
</glyph>
<glyph name="w" format="2">
  <advance width="839"/>
  <unicode hex="0077"/>
  <anchor x="419" y="586" name="top"/>
  <anchor x="421" y="-86" name="bottom"/>
  <anchor x="419" y="578" name="t.ring"/>
  <outline>
    <contour>
      <point x="194" y="0" type="line"/>
      <point x="279" y="0" type="line"/>
      <point x="419" y="399" type="line"/>
      <point x="559" y="0" type="line"/>
      <point x="645" y="0" type="line"/>
      <point x="826" y="524" type="line"/>
      <point x="733" y="524" type="line"/>
      <point x="600" y="111" type="line"/>
      <point x="455" y="524" type="line"/>
      <point x="384" y="524" type="line"/>
      <point x="240" y="111" type="line"/>
      <point x="106" y="524" type="line"/>
      <point x="13" y="524" type="line"/>
    </contour>
  </outline>
  <guideline angle="90" name="h1" x="419" y="0"/>
</glyph>
<glyph name="currency" format="2">
  <advance width="620"/>
  <unicode hex="00A4"/>
  <outline>
    <contour>
      <point x="125" y="91" type="line"/>
      <point x="196" y="161" type="line"/>
      <point x="229.333" y="138.333"/>
      <point x="267" y="127"/>
      <point x="309" y="127" type="curve" smooth="yes"/>
      <point x="351.667" y="127"/>
      <point x="389.667" y="138.333"/>
      <point x="423" y="161" type="curve"/>
      <point x="495" y="90" type="line"/>
      <point x="551" y="147" type="line"/>
      <point x="480" y="218" type="line"/>
      <point x="502.667" y="252"/>
      <point x="514" y="289.667"/>
      <point x="514" y="331" type="curve" smooth="yes"/>
      <point x="514" y="372.333"/>
      <point x="502.333" y="410"/>
      <point x="479" y="444" type="curve"/>
      <point x="550" y="515" type="line"/>
      <point x="494" y="571" type="line"/>
      <point x="422" y="502" type="line"/>
      <point x="388.667" y="524"/>
      <point x="351" y="535"/>
      <point x="309" y="535" type="curve" smooth="yes"/>
      <point x="267.667" y="535"/>
      <point x="230" y="524"/>
      <point x="196" y="502" type="curve"/>
      <point x="125" y="571" type="line"/>
      <point x="69" y="515" type="line"/>
      <point x="139" y="443" type="line"/>
      <point x="116.333" y="411.667"/>
      <point x="105" y="374.333"/>
      <point x="105" y="331" type="curve" smooth="yes"/>
      <point x="105" y="289.667"/>
      <point x="116" y="252"/>
      <point x="138" y="218" type="curve"/>
      <point x="69" y="148" type="line"/>
    </contour>
    <contour>
      <point x="309" y="202" type="curve" smooth="yes"/>
      <point x="236.786" y="202"/>
      <point x="183" y="257.067"/>
      <point x="183" y="331" type="curve" smooth="yes"/>
      <point x="183" y="404.933"/>
      <point x="236.786" y="460"/>
      <point x="309" y="460" type="curve" smooth="yes"/>
      <point x="382.511" y="460"/>
      <point x="435" y="406.261"/>
      <point x="435" y="331" type="curve" smooth="yes"/>
      <point x="435" y="255.08"/>
      <point x="383.154" y="202"/>
    </contour>
  </outline>
</glyph>
<glyph name="section" format="2">
  <advance width="572"/>
  <unicode hex="00A7"/>
  <outline>
    <contour>
      <point x="89" y="-1" type="line"/>
      <point x="89" y="-111.066"/>
      <point x="158.486" y="-172"/>
      <point x="284" y="-172" type="curve" smooth="yes"/>
      <point x="405.321" y="-172"/>
      <point x="479" y="-111.923"/>
      <point x="479" y="-13" type="curve" smooth="yes"/>
      <point x="479" y="53.1612"/>
      <point x="449.806" y="96.4716"/>
      <point x="388" y="122" type="curve"/>
      <point x="459.066" y="144.795"/>
      <point x="499" y="203.796"/>
      <point x="499" y="286" type="curve" smooth="yes"/>
      <point x="499" y="384.804"/>
      <point x="445.258" y="440.14"/>
      <point x="336" y="469" type="curve" smooth="yes"/>
      <point x="236.619" y="495.251"/>
      <point x="187" y="525.163"/>
      <point x="187" y="574" type="curve" smooth="yes"/>
      <point x="187" y="625.621"/>
      <point x="223.183" y="654"/>
      <point x="289" y="654" type="curve" smooth="yes"/>
      <point x="358.333" y="654"/>
      <point x="393" y="624.667"/>
      <point x="393" y="566" type="curve"/>
      <point x="477" y="566" type="line"/>
      <point x="477" y="671.529"/>
      <point x="409.6" y="731"/>
      <point x="290" y="731" type="curve" smooth="yes"/>
      <point x="172.938" y="731"/>
      <point x="99" y="670.223"/>
      <point x="99" y="574" type="curve" smooth="yes"/>
      <point x="99" y="509.356"/>
      <point x="127.386" y="467.099"/>
      <point x="187" y="443" type="curve"/>
      <point x="113.697" y="418.129"/>
      <point x="74" y="360.516"/>
      <point x="74" y="279" type="curve" smooth="yes"/>
      <point x="74" y="181.166"/>
      <point x="123.189" y="125.788"/>
      <point x="239" y="95" type="curve" smooth="yes"/>
      <point x="335.724" y="69.2859"/>
      <point x="391" y="37.6713"/>
      <point x="391" y="-12" type="curve" smooth="yes"/>
      <point x="391" y="-66.7414"/>
      <point x="354.57" y="-95"/>
      <point x="284" y="-95" type="curve" smooth="yes"/>
      <point x="210" y="-95"/>
      <point x="173" y="-63.6667"/>
      <point x="173" y="-1" type="curve"/>
    </contour>
    <contour>
      <point x="162" y="282" type="curve" smooth="yes"/>
      <point x="162" y="354.112"/>
      <point x="205.793" y="393"/>
      <point x="287" y="393" type="curve" smooth="yes"/>
      <point x="367.216" y="393"/>
      <point x="411" y="353.806"/>
      <point x="411" y="282" type="curve" smooth="yes"/>
      <point x="411" y="210.3"/>
      <point x="367.098" y="171"/>
      <point x="287" y="171" type="curve" smooth="yes"/>
      <point x="205.126" y="171"/>
      <point x="162" y="209.296"/>
    </contour>
  </outline>
</glyph>
<glyph name="registered" format="2">
  <advance width="531"/>
  <unicode hex="00AE"/>
  <outline>
    <contour>
      <point x="265" y="314" type="curve" smooth="yes"/>
      <point x="376.093" y="314"/>
      <point x="458" y="397.605"/>
      <point x="458" y="511" type="curve" smooth="yes"/>
      <point x="458" y="622.177"/>
      <point x="374.475" y="707"/>
      <point x="265" y="707" type="curve" smooth="yes"/>
      <point x="156.528" y="707"/>
      <point x="74" y="622.312"/>
      <point x="74" y="511" type="curve" smooth="yes"/>
      <point x="74" y="397.683"/>
      <point x="155.135" y="314"/>
    </contour>
    <contour>
      <point x="265" y="349" type="curve" smooth="yes"/>
      <point x="173.976" y="349"/>
      <point x="112" y="414.622"/>
      <point x="112" y="511" type="curve" smooth="yes"/>
      <point x="112" y="607.118"/>
      <point x="173.658" y="672"/>
      <point x="265" y="672" type="curve" smooth="yes"/>
      <point x="356.605" y="672"/>
      <point x="421" y="605.541"/>
      <point x="421" y="511" type="curve" smooth="yes"/>
      <point x="421" y="414.82"/>
      <point x="357.617" y="349"/>
    </contour>
    <contour>
      <point x="193" y="402" type="line"/>
      <point x="234" y="402" type="line"/>
      <point x="234" y="490" type="line"/>
      <point x="269" y="490" type="line"/>
      <point x="310" y="402" type="line"/>
      <point x="354" y="402" type="line"/>
      <point x="311" y="496" type="line"/>
      <point x="336.333" y="506.667"/>
      <point x="349" y="526.667"/>
      <point x="349" y="556" type="curve" smooth="yes"/>
      <point x="349" y="598.429"/>
      <point x="322.929" y="622"/>
      <point x="276" y="622" type="curve" smooth="yes"/>
      <point x="193" y="622" type="line"/>
    </contour>
    <contour>
      <point x="234" y="526" type="line"/>
      <point x="234" y="585" type="line"/>
      <point x="274" y="585" type="line" smooth="yes"/>
      <point x="296.667" y="585"/>
      <point x="308" y="575.333"/>
      <point x="308" y="556" type="curve" smooth="yes"/>
      <point x="308" y="536"/>
      <point x="296.667" y="526"/>
      <point x="274" y="526" type="curve" smooth="yes"/>
    </contour>
  </outline>
</glyph>
<glyph name="periodcentered" format="2">
  <advance width="202"/>
  <unicode hex="00B7"/>
  <anchor x="102" y="279" name="_dot"/>
  <outline>
    <contour>
      <point x="49" y="224" type="line"/>
      <point x="154" y="224" type="line"/>
      <point x="154" y="334" type="line"/>
      <point x="49" y="334" type="line"/>
    </contour>
  </outline>
</glyph>
<glyph name="AE" format="2">
  <advance width="1024"/>
  <unicode hex="00C6"/>
  <anchor x="553" y="760" name="top"/>
  <outline>
    <contour>
      <point x="6" y="0" type="line"/>
      <point x="110" y="0" type="line"/>
      <point x="210" y="165" type="line"/>
      <point x="493" y="165" type="line"/>
      <point x="493" y="0" type="line"/>
      <point x="980" y="0" type="line"/>
      <point x="980" y="83" type="line"/>
      <point x="586" y="83" type="line"/>
      <point x="586" y="317" type="line"/>
      <point x="924" y="317" type="line"/>
      <point x="924" y="400" type="line"/>
      <point x="586" y="400" type="line"/>
      <point x="586" y="624" type="line"/>
      <point x="980" y="624" type="line"/>
      <point x="980" y="707" type="line"/>
      <point x="441" y="707" type="line"/>
    </contour>
    <contour>
      <point x="258" y="244" type="line"/>
      <point x="493" y="629" type="line"/>
      <point x="493" y="244" type="line"/>
    </contour>
  </outline>
  <guideline angle="90" name="h1" x="553" y="0"/>
</glyph>
<glyph name="Eth" format="2">
  <advance width="742"/>
  <unicode hex="00D0"/>
  <outline>
    <component base="D" xOffset="52"/>
    <contour>
      <point x="35" y="317" type="line"/>
      <point x="393" y="317" type="line"/>
      <point x="393" y="400" type="line"/>
      <point x="35" y="400" type="line"/>
    </contour>
  </outline>
</glyph>
<glyph name="Oslash" format="2">
  <advance width="711"/>
  <unicode hex="00D8"/>
  <anchor x="355" y="760" name="top"/>
  <outline>
    <component base="O"/>
    <contour>
      <point x="73" y="-20" type="line"/>
      <point x="146" y="-20" type="line"/>
      <point x="640" y="729" type="line"/>
      <point x="567" y="729" type="line"/>
    </contour>
  </outline>
  <guideline angle="90" name="h1" x="355" y="0"/>
</glyph>
<glyph name="dcroat" format="2">
  <advance width="593"/>
  <unicode hex="0111"/>
  <outline>
    <component base="d"/>
    <contour>
      <point x="280" y="581" type="line"/>
      <point x="593" y="581" type="line"/>
      <point x="593" y="640" type="line"/>
      <point x="280" y="640" type="line"/>
    </contour>
  </outline>
</glyph>
<glyph name="gcommaaccent" format="2">
  <advance width="593"/>
  <unicode hex="0123"/>
  <outline>
    <component base="g"/>
    <contour>
      <point x="256" y="564" type="line"/>
      <point x="338" y="564" type="line"/>
      <point x="338" y="707" type="line"/>
      <point x="256" y="633" type="line"/>
    </contour>
  </outline>
</glyph>
<glyph name="kgreenlandic" format="2">
  <advance width="571"/>
  <unicode hex="0138"/>
  <anchor x="246" y="760" name="top"/>
  <anchor x="263" y="-86" name="bottom"/>
  <outline>
    <contour>
      <point x="69" y="0" type="line"/>
      <point x="156" y="0" type="line"/>
      <point x="156" y="524" type="line"/>
      <point x="69" y="504" type="line"/>
    </contour>
    <contour>
      <point x="145.173" y="144.154" type="line"/>
      <point x="526" y="524" type="line"/>
      <point x="417" y="524" type="line"/>
      <point x="145.173" y="248.057" type="line"/>
    </contour>
    <contour>
      <point x="451" y="0" type="line"/>
      <point x="554" y="0" type="line"/>
      <point x="316.135" y="336.543" type="line"/>
      <point x="256.153" y="276.557" type="line"/>
    </contour>
  </outline>
  <guideline angle="90" name="h1" x="246" y="0"/>
</glyph>
<glyph name="lcaron" format="2">
  <advance width="309"/>
  <unicode hex="013E"/>
  <outline>
    <component base="l"/>
    <contour>
      <point x="226" y="539" type="line"/>
      <point x="309" y="613" type="line"/>
      <point x="309" y="707" type="line"/>
      <point x="226" y="707" type="line"/>
    </contour>
  </outline>
</glyph>
<glyph name="Eng" format="2">
  <advance width="738"/>
  <unicode hex="014A"/>
  <outline>
    <contour>
      <point x="74" y="0" type="line"/>
      <point x="167" y="0" type="line"/>
      <point x="167" y="547" type="line"/>
      <point x="571" y="0" type="line"/>
      <point x="571" y="-10" type="line" smooth="yes"/>
      <point x="571" y="-79.0297"/>
      <point x="557.345" y="-95"/>
      <point x="494" y="-95" type="curve" smooth="yes"/>
      <point x="449" y="-95" type="line"/>
      <point x="449" y="-173" type="line"/>
      <point x="506" y="-173" type="line" smooth="yes"/>
      <point x="614.798" y="-173"/>
      <point x="666" y="-122.439"/>
      <point x="666" y="-15" type="curve" smooth="yes"/>
      <point x="665" y="707" type="line"/>
      <point x="571" y="707" type="line"/>
      <point x="571" y="159" type="line"/>
      <point x="167" y="707" type="line"/>
      <point x="74" y="707" type="line"/>
    </contour>
  </outline>
</glyph>
<glyph name="oe" format="2">
  <advance width="961"/>
  <unicode hex="0153"/>
  <outline>
    <contour>
      <point x="532" y="241" type="line"/>
      <point x="908" y="241" type="line"/>
      <point x="908" y="302" type="line" smooth="yes"/>
      <point x="908" y="450.629"/>
      <point x="824.353" y="535"/>
      <point x="677" y="535" type="curve" smooth="yes"/>
      <point x="593.432" y="535"/>
      <point x="528.208" y="504.631"/>
      <point x="488" y="447" type="curve"/>
      <point x="447.937" y="504.424"/>
      <point x="380.53" y="535"/>
      <point x="294" y="535" type="curve" smooth="yes"/>
      <point x="140.293" y="535"/>
      <point x="53" y="445.896"/>
      <point x="53" y="289" type="curve" smooth="yes"/>
      <point x="53" y="237" type="line" smooth="yes"/>
      <point x="53" y="80.1037"/>
      <point x="140.293" y="-9"/>
      <point x="294" y="-9" type="curve" smooth="yes"/>
      <point x="381.667" y="-9"/>
      <point x="448.133" y="20.995"/>
      <point x="489" y="79" type="curve"/>
      <point x="531.667" y="20.3333"/>
      <point x="598.333" y="-9"/>
      <point x="689" y="-9" type="curve" smooth="yes"/>
      <point x="815.322" y="-9"/>
      <point x="905" y="61.5183"/>
      <point x="905" y="165" type="curve" smooth="yes"/>
      <point x="905" y="169" type="line"/>
      <point x="819" y="169" type="line"/>
      <point x="819" y="166" type="line" smooth="yes"/>
      <point x="819" y="105.711"/>
      <point x="766.064" y="67"/>
      <point x="691" y="67" type="curve" smooth="yes"/>
      <point x="585" y="67"/>
      <point x="532" y="123.667"/>
      <point x="532" y="237" type="curve" smooth="yes"/>
    </contour>
    <contour>
      <point x="293" y="68" type="curve" smooth="yes"/>
      <point x="191" y="68"/>
      <point x="140" y="125"/>
      <point x="140" y="239" type="curve" smooth="yes"/>
      <point x="140" y="287" type="line" smooth="yes"/>
      <point x="140" y="400.333"/>
      <point x="191" y="457"/>
      <point x="293" y="457" type="curve" smooth="yes"/>
      <point x="394.333" y="457"/>
      <point x="445" y="400.333"/>
      <point x="445" y="287" type="curve" smooth="yes"/>
      <point x="445" y="239" type="line" smooth="yes"/>
      <point x="445" y="124.998"/>
      <point x="395" y="68"/>
    </contour>
    <contour>
      <point x="531.858" y="306" type="line"/>
      <point x="531.858" y="315.079" type="line" smooth="yes"/>
      <point x="531.858" y="410.656"/>
      <point x="590.112" y="458"/>
      <point x="678" y="458" type="curve" smooth="yes"/>
      <point x="771.333" y="458"/>
      <point x="821" y="408.333"/>
      <point x="821" y="315" type="curve" smooth="yes"/>
      <point x="821" y="306" type="line"/>
    </contour>
  </outline>
</glyph>
<glyph name="Lbar" format="2">
  <advance width="592"/>
  <unicode hex="023D"/>
  <outline>
    <component base="L"/>
    <contour>
      <point x="23" y="333" type="line"/>
      <point x="349" y="333" type="line"/>
      <point x="349" y="416" type="line"/>
      <point x="23" y="416" type="line"/>
    </contour>
  </outline>
</glyph>
<glyph name="uni0300" format="2">
  <unicode hex="0300"/>
  <anchor x="0" y="586" name="_top"/>
  <outline>
    <contour>
      <point x="-26" y="586" type="line"/>
      <point x="58" y="586" type="line"/>
      <point x="-60" y="717" type="line"/>
      <point x="-174" y="717" type="line"/>
    </contour>
  </outline>
  <guideline angle="90" name="h1" x="0" y="0"/>
</glyph>
<glyph name="uni0302" format="2">
  <unicode hex="0302"/>
  <anchor x="0" y="586" name="_top"/>
  <outline>
    <contour>
      <point x="-167.5" y="581" type="line"/>
      <point x="-85.5" y="581" type="line"/>
      <point x="0.5" y="673" type="line"/>
      <point x="85.5" y="581" type="line"/>
      <point x="167.5" y="581" type="line"/>
      <point x="33.5" y="730" type="line"/>
      <point x="-33.5" y="730" type="line"/>
    </contour>
  </outline>
  <guideline angle="90" name="h1" x="0" y="0"/>
</glyph>
<glyph name="uni0307" format="2">
  <unicode hex="0307"/>
  <anchor x="0" y="586" name="_top"/>
  <outline>
    <contour>
      <point x="-44" y="606" type="line"/>
      <point x="44" y="606" type="line"/>
      <point x="44" y="701" type="line"/>
      <point x="-44" y="701" type="line"/>
    </contour>
  </outline>
  <guideline angle="90" name="h1" x="0" y="0"/>
</glyph>
<glyph name="uni0308" format="2">
  <unicode hex="0308"/>
  <anchor x="0" y="586" name="_top"/>
  <outline>
    <contour>
      <point x="-153.5" y="586" type="line"/>
      <point x="-66.5" y="586" type="line"/>
      <point x="-66.5" y="683" type="line"/>
      <point x="-153.5" y="683" type="line"/>
    </contour>
    <contour>
      <point x="67.5" y="586" type="line"/>
      <point x="153.5" y="586" type="line"/>
      <point x="153.5" y="683" type="line"/>
      <point x="67.5" y="683" type="line"/>
    </contour>
  </outline>
  <guideline angle="90" name="h1" x="0" y="0"/>
</glyph>
<glyph name="uni030F" format="2">
  <unicode hex="030F"/>
  <anchor x="0" y="585" name="_top"/>
  <outline>
    <component base="uni0300" xOffset="-65.8392"/>
    <contour>
      <point x="-76.6623" y="717" type="line"/>
      <point x="71.3377" y="586" type="line"/>
      <point x="155.338" y="586" type="line"/>
      <point x="37.3377" y="717" type="line"/>
    </contour>
  </outline>
</glyph>
<glyph name="uni0323" format="2">
  <unicode hex="0323"/>
  <anchor x="0" y="-86" name="_bottom"/>
  <anchor x="0" y="-134" name="_dot"/>
  <outline>
    <contour>
      <point x="-44" y="-181" type="line"/>
      <point x="44" y="-181" type="line"/>
      <point x="44" y="-86" type="line"/>
      <point x="-44" y="-86" type="line"/>
    </contour>
  </outline>
</glyph>
<glyph name="alpha" format="2">
  <advance width="770"/>
  <unicode hex="03B1"/>
  <outline>
    <contour>
      <point x="723" y="76" type="line"/>
      <point x="625.391" y="76"/>
      <point x="581" y="122.061"/>
      <point x="581" y="216" type="curve" smooth="yes"/>
      <point x="581" y="304" type="line" smooth="yes"/>
      <point x="581" y="397.924"/>
      <point x="624.688" y="443"/>
      <point x="723" y="443" type="curve"/>
      <point x="723" y="505" type="line"/>
      <point x="636.319" y="505"/>
      <point x="570.746" y="478.183"/>
      <point x="533" y="431" type="curve"/>
      <point x="497.919" y="490.638"/>
      <point x="417.516" y="526"/>
      <point x="317" y="526" type="curve" smooth="yes"/>
      <point x="156.071" y="526"/>
      <point x="69" y="451.217"/>
      <point x="69" y="313" type="curve" smooth="yes"/>
      <point x="69" y="207" type="line" smooth="yes"/>
      <point x="69" y="68.7825"/>
      <point x="156.071" y="-6"/>
      <point x="317" y="-6" type="curve" smooth="yes"/>
      <point x="417.516" y="-6"/>
      <point x="497.919" y="29.3623"/>
      <point x="533" y="89" type="curve"/>
      <point x="570.746" y="41.8171"/>
      <point x="636.319" y="15"/>
      <point x="723" y="15" type="curve"/>
    </contour>
    <contour>
      <point x="155" y="211" type="curve" smooth="yes"/>
      <point x="155" y="309" type="line" smooth="yes"/>
      <point x="155" y="413.587"/>
      <point x="206.98" y="463"/>
      <point x="317" y="463" type="curve" smooth="yes"/>
      <point x="424.107" y="463"/>
      <point x="474" y="414.061"/>
      <point x="474" y="309" type="curve" smooth="yes"/>
      <point x="474" y="211" type="line" smooth="yes"/>
      <point x="474" y="106.414"/>
      <point x="422.936" y="56"/>
      <point x="317" y="56" type="curve" smooth="yes"/>
      <point x="208.086" y="56"/>
      <point x="155" y="106.792"/>
    </contour>
  </outline>
</glyph>
<glyph name="Zecyr" format="2">
  <advance width="642"/>
  <unicode hex="0417"/>
  <outline>
    <contour>
      <point x="74.9147" y="237.147" type="line"/>
      <point x="74.9147" y="228.6" type="line" smooth="yes"/>
      <point x="74.9147" y="102.27"/>
      <point x="173.879" y="0"/>
      <point x="335" y="0" type="curve" smooth="yes"/>
      <point x="489.328" y="0"/>
      <point x="582" y="68.7187"/>
      <point x="582" y="197" type="curve" smooth="yes"/>
      <point x="582" y="212" type="line" smooth="yes"/>
      <point x="582" y="282.495"/>
      <point x="536.53" y="346.357"/>
      <point x="471.068" y="367.802" type="curve"/>
      <point x="531.416" y="389.101"/>
      <point x="569" y="443.058"/>
      <point x="569" y="508.396" type="curve" smooth="yes"/>
      <point x="569" y="520.282" type="line" smooth="yes"/>
      <point x="569" y="635.543"/>
      <point x="477.152" y="707"/>
      <point x="329" y="707" type="curve" smooth="yes"/>
      <point x="173.766" y="707"/>
      <point x="78" y="604.103"/>
      <point x="75.0332" y="479" type="curve" smooth="yes"/>
      <point x="74.8198" y="470" type="line"/>
      <point x="167.82" y="470" type="line"/>
      <point x="168.211" y="479" type="line" smooth="yes"/>
      <point x="171.708" y="559.534"/>
      <point x="227.672" y="625"/>
      <point x="331" y="625" type="curve" smooth="yes"/>
      <point x="416.674" y="625"/>
      <point x="477" y="578.723"/>
      <point x="477" y="513" type="curve" smooth="yes"/>
      <point x="477" y="498" type="line" smooth="yes"/>
      <point x="477" y="441.2"/>
      <point x="424.733" y="402"/>
      <point x="349" y="402" type="curve" smooth="yes"/>
      <point x="224.82" y="402" type="line"/>
      <point x="224.82" y="321" type="line"/>
      <point x="351" y="321" type="line" smooth="yes"/>
      <point x="443" y="321"/>
      <point x="489" y="273.033"/>
      <point x="489" y="212" type="curve" smooth="yes"/>
      <point x="489" y="203" type="line" smooth="yes"/>
      <point x="489" y="121.227"/>
      <point x="432.965" y="82"/>
      <point x="337" y="82" type="curve" smooth="yes"/>
      <point x="225.474" y="82"/>
      <point x="168.017" y="151.073"/>
      <point x="168.017" y="228.6" type="curve" smooth="yes"/>
      <point x="168.017" y="237.147" type="line"/>
    </contour>
  </outline>
</glyph>
<glyph name="Tsecyr" format="2">
  <advance width="648"/>
  <unicode hex="0426"/>
  <outline>
    <contour>
      <point x="489" y="0" type="line"/>
      <point x="582" y="0" type="line"/>
      <point x="582" y="707" type="line"/>
      <point x="489" y="707" type="line"/>
    </contour>
    <contour>
      <point x="135.485" y="0" type="line"/>
      <point x="524.665" y="0" type="line"/>
      <point x="524.665" y="83" type="line"/>
      <point x="135.485" y="83" type="line"/>
    </contour>
    <contour>
      <point x="74" y="0" type="line"/>
      <point x="167" y="0" type="line"/>
      <point x="167" y="707" type="line"/>
      <point x="74" y="707" type="line"/>
    </contour>
    <contour>
      <point x="454.904" y="0" type="line"/>
      <point x="545" y="0" type="line"/>
      <point x="545" y="-170" type="line"/>
      <point x="638" y="-170" type="line"/>
      <point x="638" y="83" type="line"/>
      <point x="454.904" y="83" type="line"/>
    </contour>
  </outline>
</glyph>
<glyph name="Hardcyr" format="2">
  <advance width="813"/>
  <unicode hex="042A"/>
  <outline>
    <contour>
      <point x="276.82" y="0" type="line"/>
      <point x="510" y="0" type="line" smooth="yes"/>
      <point x="668.186" y="0"/>
      <point x="753" y="73.9938"/>
      <point x="753" y="212" type="curve" smooth="yes"/>
      <point x="753" y="348.886"/>
      <point x="667.646" y="423"/>
      <point x="510" y="423" type="curve" smooth="yes"/>
      <point x="276.82" y="423" type="line"/>
      <point x="276.82" y="340" type="line"/>
      <point x="512" y="340" type="line" smooth="yes"/>
      <point x="614.281" y="340"/>
      <point x="659" y="301.365"/>
      <point x="659" y="213" type="curve" smooth="yes"/>
      <point x="659" y="121.086"/>
      <point x="614.338" y="83.1379"/>
      <point x="506" y="83" type="curve" smooth="yes"/>
      <point x="276.82" y="82.7084" type="line"/>
    </contour>
    <contour>
      <point x="204" y="0" type="line"/>
      <point x="297" y="-0.0316" type="line"/>
      <point x="297" y="707" type="line"/>
      <point x="204" y="707" type="line"/>
    </contour>
    <contour>
      <point x="-0.1307" y="624" type="line"/>
      <point x="250.5" y="624" type="line"/>
      <point x="250.5" y="707" type="line"/>
      <point x="-0.1307" y="707" type="line"/>
    </contour>
  </outline>
</glyph>
<glyph name="becyr" format="2">
  <advance width="585"/>
  <unicode hex="0431"/>
  <outline>
    <contour>
      <point x="294" y="-9" type="curve" smooth="yes"/>
      <point x="446" y="-9"/>
      <point x="532" y="75"/>
      <point x="532" y="232" type="curve" smooth="yes"/>
      <point x="532" y="245" type="line" smooth="yes"/>
      <point x="532" y="402"/>
      <point x="446" y="486"/>
      <point x="316" y="486" type="curve" smooth="yes"/>
      <point x="238" y="486"/>
      <point x="169.49" y="455.499"/>
      <point x="143" y="403" type="curve"/>
      <point x="53" y="403" type="line"/>
      <point x="53" y="232" type="line" smooth="yes"/>
      <point x="53" y="75"/>
      <point x="140" y="-9"/>
    </contour>
    <contour>
      <point x="293" y="68" type="curve" smooth="yes"/>
      <point x="191" y="68"/>
      <point x="140" y="120"/>
      <point x="140" y="234" type="curve" smooth="yes"/>
      <point x="140" y="243" type="line" smooth="yes"/>
      <point x="140" y="356"/>
      <point x="191" y="408"/>
      <point x="293" y="408" type="curve" smooth="yes"/>
      <point x="394" y="408"/>
      <point x="445" y="356"/>
      <point x="445" y="243" type="curve" smooth="yes"/>
      <point x="445" y="234" type="line" smooth="yes"/>
      <point x="445" y="120"/>
      <point x="394" y="68"/>
    </contour>
    <contour>
      <point x="53" y="239.582" type="line"/>
      <point x="140" y="240.289" type="line"/>
      <point x="140" y="403.22" type="line" smooth="yes"/>
      <point x="140" y="625.759"/>
      <point x="342.032" y="553.386"/>
      <point x="466.461" y="620.388" type="curve"/>
      <point x="466.461" y="707" type="line"/>
      <point x="309.928" y="620.633"/>
      <point x="53" y="725.272"/>
      <point x="53" y="411.907" type="curve" smooth="yes"/>
    </contour>
  </outline>
</glyph>
<glyph name="zecyr" format="2">
  <advance width="591"/>
  <unicode hex="0437"/>
  <outline>
    <contour>
      <point x="53.2645" y="164" type="line"/>
      <point x="53.4722" y="146.907" type="line" smooth="yes"/>
      <point x="54.5568" y="57.6366"/>
      <point x="156.341" y="-9"/>
      <point x="291.613" y="-9" type="curve" smooth="yes"/>
      <point x="433.625" y="-9"/>
      <point x="522.925" y="56.6299"/>
      <point x="522.925" y="161" type="curve" smooth="yes"/>
      <point x="522.925" y="170.934" type="line" smooth="yes"/>
      <point x="522.925" y="230.083"/>
      <point x="499.182" y="268.727"/>
      <point x="451" y="288" type="curve"/>
      <point x="451" y="291" type="line"/>
      <point x="487.698" y="303.109"/>
      <point x="512.908" y="340.972"/>
      <point x="512.908" y="383.98" type="curve" smooth="yes"/>
      <point x="512.908" y="391.123" type="line" smooth="yes"/>
      <point x="512.908" y="478.066"/>
      <point x="425.12" y="535"/>
      <point x="291.059" y="535" type="curve" smooth="yes"/>
      <point x="146.086" y="535"/>
      <point x="54.0488" y="473.027"/>
      <point x="54.0488" y="375.409" type="curve" smooth="yes"/>
      <point x="54.0488" y="360" type="line"/>
      <point x="142.162" y="360" type="line"/>
      <point x="142.162" y="375.701" type="line" smooth="yes"/>
      <point x="142.162" y="422.471"/>
      <point x="204.644" y="457"/>
      <point x="289.275" y="457" type="curve" smooth="yes"/>
      <point x="370.209" y="457"/>
      <point x="426.034" y="430.73"/>
      <point x="426.034" y="392.643" type="curve" smooth="yes"/>
      <point x="426.034" y="382" type="line" smooth="yes"/>
      <point x="426.034" y="349.903"/>
      <point x="399.975" y="322"/>
      <point x="370" y="322" type="curve" smooth="yes"/>
      <point x="236.11" y="322" type="line"/>
      <point x="236.11" y="243" type="line"/>
      <point x="369" y="243" type="line" smooth="yes"/>
      <point x="405.79" y="243"/>
      <point x="436.226" y="209.044"/>
      <point x="436.226" y="168" type="curve" smooth="yes"/>
      <point x="436.226" y="155.686" type="line" smooth="yes"/>
      <point x="436.226" y="98.5117"/>
      <point x="387.342" y="68"/>
      <point x="295.742" y="68" type="curve" smooth="yes"/>
      <point x="210.693" y="68"/>
      <point x="142.971" y="103.811"/>
      <point x="142.239" y="149.17" type="curve" smooth="yes"/>
      <point x="142" y="164" type="line"/>
    </contour>
  </outline>
</glyph>
<glyph name="kacyr" format="2">
  <advance width="567"/>
  <unicode hex="043A"/>
  <anchor x="265" y="586" name="top"/>
  <outline>
    <contour>
      <point x="69" y="0" type="line"/>
      <point x="156" y="0" type="line"/>
      <point x="156" y="524" type="line"/>
      <point x="69" y="524" type="line"/>
    </contour>
    <contour>
      <point x="193.58" y="277" type="line"/>
      <point x="298.35" y="277" type="line"/>
      <point x="546" y="524" type="line"/>
      <point x="437" y="524" type="line"/>
    </contour>
    <contour>
      <point x="451" y="0" type="line"/>
      <point x="554" y="0" type="line"/>
      <point x="316" y="337" type="line"/>
      <point x="256" y="277" type="line"/>
    </contour>
    <contour>
      <point x="136" y="243" type="line"/>
      <point x="311.306" y="243" type="line"/>
      <point x="311.306" y="322" type="line"/>
      <point x="136" y="322" type="line"/>
    </contour>
  </outline>
  <guideline angle="0" x="0" y="343"/>
  <guideline angle="0" x="0" y="258"/>
  <guideline angle="0" x="0" y="277"/>
  <guideline angle="90" name="h1" x="265" y="0"/>
</glyph>
<glyph name="tsecyr" format="2">
  <advance width="582"/>
  <unicode hex="0446"/>
  <outline>
    <contour>
      <point x="430" y="0" type="line"/>
      <point x="517" y="0" type="line"/>
      <point x="517" y="524" type="line"/>
      <point x="430" y="524" type="line"/>
    </contour>
    <contour>
      <point x="69" y="0" type="line"/>
      <point x="156" y="0" type="line"/>
      <point x="156" y="524" type="line"/>
      <point x="69" y="524" type="line"/>
    </contour>
    <contour>
      <point x="136" y="-0.2325" type="line"/>
      <point x="449.972" y="-0.3442" type="line"/>
      <point x="449.972" y="78.6558" type="line"/>
      <point x="136" y="78.6558" type="line"/>
    </contour>
    <contour>
      <point x="484.87" y="-170" type="line"/>
      <point x="571.87" y="-170" type="line"/>
      <point x="571.87" y="78.957" type="line"/>
      <point x="464.87" y="78.957" type="line"/>
      <point x="464.87" y="-0.484917" type="line"/>
      <point x="484.87" y="-0.484917" type="line"/>
    </contour>
  </outline>
</glyph>
<glyph name="checyr" format="2">
  <advance width="586"/>
  <unicode hex="0447"/>
  <outline>
    <contour>
      <point x="262.134" y="173" type="curve" smooth="yes"/>
      <point x="352.838" y="173"/>
      <point x="398.76" y="182.722"/>
      <point x="457" y="219.749" type="curve"/>
      <point x="457" y="273.579" type="line"/>
      <point x="430" y="273.579" type="line"/>
      <point x="394.424" y="255.842"/>
      <point x="363.481" y="251"/>
      <point x="293" y="251" type="curve" smooth="yes"/>
      <point x="201.99" y="251"/>
      <point x="156" y="300.011"/>
      <point x="156" y="397" type="curve" smooth="yes"/>
      <point x="156" y="524" type="line"/>
      <point x="69" y="524" type="line"/>
      <point x="69" y="388" type="line" smooth="yes"/>
      <point x="69" y="249.162"/>
      <point x="137.416" y="173"/>
    </contour>
    <contour>
      <point x="430" y="0" type="line"/>
      <point x="517" y="0" type="line"/>
      <point x="517" y="524" type="line"/>
      <point x="430" y="524" type="line"/>
    </contour>
  </outline>
</glyph>
<glyph name="yucyr" format="2">
  <advance width="765"/>
  <unicode hex="044E"/>
  <anchor x="443" y="586" name="top"/>
  <outline>
    <component base="dotlessi" xOffset="-7"/>
    <component base="o" xOffset="180"/>
    <contour>
      <point x="106" y="243" type="line"/>
      <point x="280" y="243" type="line"/>
      <point x="280" y="322" type="line"/>
      <point x="106" y="322" type="line"/>
    </contour>
  </outline>
  <guideline angle="90" name="h1" x="112" y="0"/>
  <guideline angle="90" name="h1" x="443" y="0"/>
</glyph>
<glyph name="geupcyr" format="2">
  <advance width="387"/>
  <unicode hex="0491"/>
  <outline>
    <contour>
      <point x="364" y="445" type="line"/>
      <point x="364" y="524" type="line"/>
      <point x="69" y="524" type="line"/>
      <point x="69" y="445.107" type="line"/>
    </contour>
    <contour>
      <point x="69" y="0" type="line"/>
      <point x="156" y="0" type="line"/>
      <point x="156" y="524.02" type="line"/>
      <point x="69" y="524" type="line"/>
    </contour>
    <contour>
      <point x="277" y="524" type="line"/>
      <point x="364" y="524" type="line"/>
      <point x="364" y="664.896" type="line"/>
      <point x="277" y="664.896" type="line"/>
    </contour>
  </outline>
</glyph>
<glyph name="Zdotbelow" format="2">
  <advance width="584"/>
  <unicode hex="1E92"/>
  <outline>
    <contour>
      <point x="37" y="1" type="line"/>
      <point x="551" y="1" type="line"/>
      <point x="551" y="84" type="line"/>
      <point x="145" y="84" type="line"/>
      <point x="546" y="625" type="line"/>
      <point x="546" y="708" type="line"/>
      <point x="50" y="708" type="line"/>
      <point x="50" y="625" type="line"/>
      <point x="438" y="625" type="line"/>
      <point x="37" y="84" type="line"/>
    </contour>
    <contour>
      <point x="248" y="-181" type="line"/>
      <point x="336" y="-181" type="line"/>
      <point x="336" y="-86" type="line"/>
      <point x="248" y="-86" type="line"/>
    </contour>
  </outline>
</glyph>
<glyph name="zdotbelow" format="2">
  <advance width="512"/>
  <unicode hex="1E93"/>
  <outline>
    <contour>
      <point x="53" y="0" type="line"/>
      <point x="459" y="0" type="line"/>
      <point x="459" y="77" type="line"/>
      <point x="154" y="77" type="line"/>
      <point x="459" y="446" type="line"/>
      <point x="459" y="524" type="line"/>
      <point x="53" y="524" type="line"/>
      <point x="53" y="446" type="line"/>
      <point x="356" y="446" type="line"/>
      <point x="53" y="77" type="line"/>
    </contour>
    <contour>
      <point x="212" y="-181" type="line"/>
      <point x="300" y="-181" type="line"/>
      <point x="300" y="-86" type="line"/>
      <point x="212" y="-86" type="line"/>
    </contour>
  </outline>
</glyph>
<glyph name="endash" format="2">
  <advance width="493"/>
  <unicode hex="2013"/>
  <outline>
    <contour>
      <point x="0" y="313" type="line"/>
      <point x="494" y="313" type="line"/>
      <point x="494" y="396" type="line"/>
      <point x="0" y="396" type="line"/>
    </contour>
  </outline>
</glyph>
<glyph name="quoteleft" format="2">
  <advance width="181"/>
  <unicode hex="2018"/>
  <outline>
    <contour>
      <point x="49" y="487" type="line"/>
      <point x="132" y="487" type="line"/>
      <point x="132" y="744" type="line"/>
      <point x="49" y="670" type="line"/>
    </contour>
  </outline>
</glyph>
<glyph name="daggerdbl" format="2">
  <advance width="600"/>
  <unicode hex="2021"/>
  <outline>
    <contour>
      <point x="254" y="-157" type="line"/>
      <point x="347" y="-157" type="line"/>
      <point x="347" y="82" type="line"/>
      <point x="531" y="82" type="line"/>
      <point x="531" y="165" type="line"/>
      <point x="347" y="165" type="line"/>
      <point x="347" y="388" type="line"/>
      <point x="531" y="388" type="line"/>
      <point x="531" y="471" type="line"/>
      <point x="347" y="471" type="line"/>
      <point x="347" y="707" type="line"/>
      <point x="254" y="707" type="line"/>
      <point x="254" y="471" type="line"/>
      <point x="69" y="471" type="line"/>
      <point x="69" y="388" type="line"/>
      <point x="254" y="388" type="line"/>
      <point x="254" y="165" type="line"/>
      <point x="69" y="165" type="line"/>
      <point x="69" y="82" type="line"/>
      <point x="254" y="82" type="line"/>
    </contour>
  </outline>
</glyph>
<glyph name="second" format="2">
  <advance width="403"/>
  <unicode hex="2033"/>
  <outline>
    <contour>
      <point x="210" y="586" type="line"/>
      <point x="292" y="586" type="line"/>
      <point x="358" y="717" type="line"/>
      <point x="249" y="717" type="line"/>
    </contour>
    <contour>
      <point x="50" y="586" type="line"/>
      <point x="132" y="586" type="line"/>
      <point x="198" y="717" type="line"/>
      <point x="89" y="717" type="line"/>
    </contour>
  </outline>
</glyph>
<glyph name="Cacute.loclPLK" format="2">
  <advance width="696"/>
  <outline>
    <component base="C"/>
    <contour>
      <point x="305" y="773" type="line"/>
      <point x="387" y="773" type="line"/>
      <point x="453" y="904" type="line"/>
      <point x="344" y="904" type="line"/>
    </contour>
  </outline>
</glyph>
<glyph name="Sacute.loclPLK" format="2">
  <advance width="625"/>
  <outline>
    <component base="S"/>
    <contour>
      <point x="269" y="773" type="line"/>
      <point x="351" y="773" type="line"/>
      <point x="417" y="904" type="line"/>
      <point x="308" y="904" type="line"/>
    </contour>
  </outline>
</glyph>
<glyph name="four.dnom" format="2">
  <advance width="391"/>
  <outline>
    <contour>
      <point x="40" y="77" type="line"/>
      <point x="241" y="77" type="line"/>
      <point x="241" y="0" type="line"/>
      <point x="311" y="0" type="line"/>
      <point x="311" y="77" type="line"/>
      <point x="351" y="77" type="line"/>
      <point x="351" y="137" type="line"/>
      <point x="311" y="137" type="line"/>
      <point x="311" y="238" type="line"/>
      <point x="241" y="238" type="line"/>
      <point x="241" y="137" type="line"/>
      <point x="111" y="137" type="line"/>
      <point x="229" y="427" type="line"/>
      <point x="160" y="427" type="line"/>
      <point x="40" y="137" type="line"/>
    </contour>
  </outline>
</glyph>
<glyph name="four.numr" format="2">
  <advance width="391"/>
  <outline>
    <contour>
      <point x="40" y="357" type="line"/>
      <point x="241" y="357" type="line"/>
      <point x="241" y="280" type="line"/>
      <point x="311" y="280" type="line"/>
      <point x="311" y="357" type="line"/>
      <point x="351" y="357" type="line"/>
      <point x="351" y="417" type="line"/>
      <point x="311" y="417" type="line"/>
      <point x="311" y="518" type="line"/>
      <point x="241" y="518" type="line"/>
      <point x="241" y="417" type="line"/>
      <point x="111" y="417" type="line"/>
      <point x="229" y="707" type="line"/>
      <point x="160" y="707" type="line"/>
      <point x="40" y="417" type="line"/>
    </contour>
  </outline>
</glyph>
<glyph name="one.numr" format="2">
  <advance width="240"/>
  <outline>
    <contour>
      <point x="99.0258" y="279.986" type="line"/>
      <point x="179.026" y="279.986" type="line"/>
      <point x="179.026" y="706.986" type="line"/>
      <point x="99.0258" y="706.986" type="line"/>
      <point x="12.0258" y="653.986" type="line"/>
      <point x="12.0258" y="570.986" type="line"/>
      <point x="99.0258" y="624.986" type="line"/>
    </contour>
  </outline>
</glyph>
<glyph name="shchacyr.loclBGR" format="2">
  <advance width="921"/>
  <outline>
    <component base="shacyr.loclBGR"/>
    <contour>
      <point x="833.87" y="-170" type="line"/>
      <point x="920.87" y="-170" type="line"/>
      <point x="920.87" y="78.957" type="line"/>
      <point x="813.87" y="78.957" type="line"/>
      <point x="813.87" y="-0.484917" type="line"/>
      <point x="833.87" y="-0.484917" type="line"/>
    </contour>
  </outline>
</glyph>
<glyph name="t_t" format="2">
  <advance width="714"/>
  <outline>
    <component base="t"/>
    <component base="t" xOffset="321.257"/>
    <contour>
      <point x="492.28" y="459" type="line"/>
      <point x="492.28" y="524" type="line"/>
      <point x="146.871" y="524" type="line"/>
      <point x="146.871" y="459" type="line"/>
    </contour>
  </outline>
</glyph>
<glyph name="three.dnom" format="2">
  <advance width="349"/>
  <outline>
    <contour>
      <point x="29.7388" y="118" type="line"/>
      <point x="29.7388" y="110" type="line" smooth="yes"/>
      <point x="29.7388" y="36.8464"/>
      <point x="81.8193" y="-6"/>
      <point x="170.739" y="-6" type="curve" smooth="yes"/>
      <point x="261.178" y="-6"/>
      <point x="316.739" y="40.8082"/>
      <point x="316.739" y="117" type="curve" smooth="yes"/>
      <point x="316.739" y="126" type="line" smooth="yes"/>
      <point x="316.739" y="176.667"/>
      <point x="294.405" y="210.333"/>
      <point x="249.739" y="227" type="curve"/>
      <point x="289.739" y="244.333"/>
      <point x="309.739" y="274"/>
      <point x="309.739" y="316" type="curve" smooth="yes"/>
      <point x="309.739" y="324" type="line" smooth="yes"/>
      <point x="309.739" y="392.82"/>
      <point x="257.702" y="434"/>
      <point x="170.739" y="434" type="curve" smooth="yes"/>
      <point x="83.4686" y="434"/>
      <point x="31.7388" y="390.83"/>
      <point x="31.7388" y="318" type="curve" smooth="yes"/>
      <point x="31.7388" y="311" type="line"/>
      <point x="102.739" y="311" type="line"/>
      <point x="102.739" y="318" type="line" smooth="yes"/>
      <point x="102.739" y="350.738"/>
      <point x="126.013" y="369"/>
      <point x="167.739" y="369" type="curve" smooth="yes"/>
      <point x="211.072" y="369"/>
      <point x="232.739" y="351.333"/>
      <point x="232.739" y="316" type="curve" smooth="yes"/>
      <point x="232.739" y="309" type="line" smooth="yes"/>
      <point x="232.739" y="272.333"/>
      <point x="209.739" y="254"/>
      <point x="163.739" y="254" type="curve" smooth="yes"/>
      <point x="139.739" y="254" type="line"/>
      <point x="139.739" y="188" type="line"/>
      <point x="163.739" y="188" type="line" smooth="yes"/>
      <point x="215.474" y="188"/>
      <point x="239.739" y="167.886"/>
      <point x="239.739" y="125" type="curve" smooth="yes"/>
      <point x="239.739" y="117" type="line" smooth="yes"/>
      <point x="239.739" y="78.3333"/>
      <point x="216.405" y="59"/>
      <point x="169.739" y="59" type="curve" smooth="yes"/>
      <point x="123.739" y="59"/>
      <point x="100.739" y="76.6667"/>
      <point x="100.739" y="112" type="curve" smooth="yes"/>
      <point x="100.739" y="118" type="line"/>
    </contour>
  </outline>
</glyph>
<glyph name="two.dnom" format="2">
  <advance width="354"/>
  <outline>
    <contour>
      <point x="36.4715" y="0" type="line"/>
      <point x="320.472" y="0" type="line"/>
      <point x="320.472" y="69" type="line"/>
      <point x="147.472" y="69" type="line"/>
      <point x="256.472" y="186" type="line" smooth="yes"/>
      <point x="298.329" y="230.929"/>
      <point x="318.472" y="261.419"/>
      <point x="318.472" y="306" type="curve" smooth="yes"/>
      <point x="318.472" y="315" type="line" smooth="yes"/>
      <point x="318.472" y="389.364"/>
      <point x="265.584" y="434"/>
      <point x="177.472" y="434" type="curve" smooth="yes"/>
      <point x="86.601" y="434"/>
      <point x="32.4715" y="388.83"/>
      <point x="32.4715" y="313" type="curve" smooth="yes"/>
      <point x="32.4715" y="303" type="line"/>
      <point x="109.472" y="303" type="line"/>
      <point x="109.472" y="311" type="line" smooth="yes"/>
      <point x="109.472" y="348.703"/>
      <point x="132.219" y="369"/>
      <point x="174.472" y="369" type="curve" smooth="yes"/>
      <point x="216.764" y="369"/>
      <point x="238.472" y="349.667"/>
      <point x="238.472" y="312" type="curve" smooth="yes"/>
      <point x="238.472" y="305" type="line" smooth="yes"/>
      <point x="238.472" y="281.553"/>
      <point x="227.76" y="261.504"/>
      <point x="199.472" y="232" type="curve" smooth="yes"/>
      <point x="36.4715" y="62" type="line"/>
    </contour>
  </outline>
</glyph>
<glyph name="zero.numr" format="2">
  <advance width="370"/>
  <outline>
    <contour>
      <point x="184.789" y="273.278" type="curve" smooth="yes"/>
      <point x="282.41" y="273.278"/>
      <point x="329.869" y="330.993"/>
      <point x="329.869" y="429.142" type="curve" smooth="yes"/>
      <point x="329.869" y="562.581" type="line" smooth="yes"/>
      <point x="329.869" y="658.503"/>
      <point x="283.461" y="713.278"/>
      <point x="184.789" y="713.278" type="curve" smooth="yes"/>
      <point x="90.0212" y="713.278"/>
      <point x="40.8691" y="655.45"/>
      <point x="40.8691" y="562.581" type="curve" smooth="yes"/>
      <point x="40.8691" y="429.142" type="line" smooth="yes"/>
      <point x="40.8691" y="331.477"/>
      <point x="88.4255" y="273.278"/>
    </contour>
    <contour>
      <point x="184.869" y="332.278" type="curve" smooth="yes"/>
      <point x="130.226" y="332.278"/>
      <point x="110.869" y="363.582"/>
      <point x="110.869" y="423.721" type="curve" smooth="yes"/>
      <point x="110.869" y="565.118" type="line" smooth="yes"/>
      <point x="110.869" y="623.458"/>
      <point x="129.928" y="653.278"/>
      <point x="184.869" y="653.278" type="curve" smooth="yes"/>
      <point x="238.769" y="653.278"/>
      <point x="258.869" y="622.352"/>
      <point x="258.869" y="565.118" type="curve" smooth="yes"/>
      <point x="258.869" y="423.721" type="line" smooth="yes"/>
      <point x="258.869" y="364.135"/>
      <point x="239.01" y="332.278"/>
    </contour>
  </outline>
</glyph>
